<?xml version="1.0" encoding="UTF-8" standalone="no"?>
<svg
   xmlns:dc="http://purl.org/dc/elements/1.1/"
   xmlns:cc="http://creativecommons.org/ns#"
   xmlns:rdf="http://www.w3.org/1999/02/22-rdf-syntax-ns#"
   xmlns:svg="http://www.w3.org/2000/svg"
   xmlns="http://www.w3.org/2000/svg"
   xmlns:sodipodi="http://sodipodi.sourceforge.net/DTD/sodipodi-0.dtd"
   xmlns:inkscape="http://www.inkscape.org/namespaces/inkscape"
   version="1.1"
   id="Capa_1"
   x="0px"
   y="0px"
   width="512px"
   height="512px"
   viewBox="0 0 335.08 335.079"
   style="enable-background:new 0 0 335.08 335.079;"
   xml:space="preserve"
   sodipodi:docname="dictionariesList.svg"
   inkscape:version="0.92.1 r15371"><metadata
     id="metadata4628"><rdf:RDF><cc:Work
         rdf:about=""><dc:format>image/svg+xml</dc:format><dc:type
           rdf:resource="http://purl.org/dc/dcmitype/StillImage" /><dc:title></dc:title></cc:Work></rdf:RDF></metadata><defs
     id="defs4626" /><sodipodi:namedview
     pagecolor="#ffffff"
     bordercolor="#666666"
     borderopacity="1"
     objecttolerance="10"
     gridtolerance="10"
     guidetolerance="10"
     inkscape:pageopacity="0"
     inkscape:pageshadow="2"
     inkscape:window-width="1920"
     inkscape:window-height="1017"
     id="namedview4624"
     showgrid="false"
     inkscape:zoom="0.65186406"
     inkscape:cx="268.78921"
     inkscape:cy="392.72235"
     inkscape:window-x="-8"
     inkscape:window-y="-8"
     inkscape:window-maximized="1"
     inkscape:current-layer="Capa_1" /><g
     id="g4621"><g
       id="g4619"><g
         id="g4617"><path
           d="M311.175,115.775c-1.355-10.186-1.546-27.73,7.915-33.621c0.169-0.108,0.295-0.264,0.443-0.398    c7.735-2.474,13.088-5.946,8.886-10.618l-114.102-34.38L29.56,62.445c0,0-21.157,3.024-19.267,35.894    c1.026,17.89,6.637,26.676,11.544,31l-15.161,4.569c-4.208,4.672,1.144,8.145,8.88,10.615c0.147,0.138,0.271,0.293,0.443,0.401    c9.455,5.896,9.273,23.438,7.913,33.626c-33.967,9.645-21.774,12.788-21.774,12.788l7.451,1.803    c-5.241,4.736-10.446,13.717-9.471,30.75c1.891,32.864,19.269,35.132,19.269,35.132l120.904,39.298l182.49-44.202    c0,0,12.197-3.148-21.779-12.794c-1.366-10.172-1.556-27.712,7.921-33.623c0.174-0.105,0.301-0.264,0.442-0.396    c7.736-2.474,13.084-5.943,8.881-10.615l-7.932-2.395c5.29-3.19,13.236-11.527,14.481-33.183    c0.859-14.896-3.027-23.62-7.525-28.756l15.678-3.794C332.949,128.569,345.146,125.421,311.175,115.775z M158.533,115.354    l30.688-6.307l103.708-21.312l15.451-3.178c-4.937,9.036-4.73,21.402-3.913,29.35c0.179,1.798,0.385,3.44,0.585,4.688    L288.14,122.8l-130.897,32.563L158.533,115.354z M26.71,147.337l15.449,3.178l99.597,20.474l8.701,1.782l0,0l0,0l26.093,5.363    l1.287,40.01L43.303,184.673l-13.263-3.296c0.195-1.25,0.401-2.89,0.588-4.693C31.44,168.742,31.651,156.373,26.71,147.337z     M20.708,96.757c-0.187-8.743,1.371-15.066,4.52-18.28c2.004-2.052,4.369-2.479,5.991-2.479c0.857,0,1.474,0.119,1.516,0.119    l79.607,25.953l39.717,12.949l-1.303,40.289L39.334,124.07l-5.88-1.647c-0.216-0.061-0.509-0.103-0.735-0.113    C32.26,122.277,21.244,121.263,20.708,96.757z M140.579,280.866L23.28,247.98c-0.217-0.063-0.507-0.105-0.733-0.116    c-0.467-0.031-11.488-1.044-12.021-25.544c-0.19-8.754,1.376-15.071,4.519-18.288c2.009-2.052,4.375-2.479,5.994-2.479    c0.859,0,1.474,0.115,1.519,0.115c0,0,0.005,0,0,0l119.316,38.908L140.579,280.866z M294.284,239.459    c0.185,1.804,0.391,3.443,0.591,4.693l-147.812,36.771l1.292-40.01l31.601-6.497l4.667,1.129l17.492-5.685l80.631-16.569    l15.457-3.18C293.261,219.146,293.466,231.517,294.284,239.459z M302.426,185.084c-0.269,0.006-0.538,0.042-0.791,0.122    l-11.148,3.121l-106.148,29.764l-1.298-40.289l34.826-11.359l84.327-27.501c0.011-0.005,4.436-0.988,7.684,2.315    c3.144,3.214,4.704,9.537,4.52,18.28C313.848,184.035,302.827,185.053,302.426,185.084z"
           data-original="#000000"
           class="active-path"
           data-old_color="#685a57"
           fill="#685a57"
           id="path4615" /></g></g></g><path
     style="opacity:1;fill:#ffe6d5;fill-opacity:1;stroke:#ffb7ac;stroke-width:1.08474576;stroke-miterlimit:4;stroke-dasharray:none;stroke-dashoffset:0;stroke-opacity:0;paint-order:fill markers stroke"
     d="m 240.60539,232.32499 c 0.11971,-2.61017 0.58219,-16.2016 1.02774,-30.20317 0.44554,-14.00159 0.88599,-25.53333 0.97877,-25.62611 0.18774,-0.18774 226.90573,-46.81478 227.63086,-46.81478 0.25166,0 -0.16606,1.40339 -0.92827,3.11864 -3.91613,8.81279 -5.62217,22.33009 -4.59312,36.39224 0.35228,4.81396 0.78188,9.4595 0.95466,10.32341 l 0.31415,1.57075 -58.22525,14.48261 c -115.8459,28.81483 -166.94731,41.50218 -167.16019,41.50218 -0.11936,0 -0.11907,-2.1356 6.5e-4,-4.74577 z"
     id="path5175"
     inkscape:connector-curvature="0"
     transform="matrix(0.65445312,0,0,0.65445312,0,-5e-4)" /><path
     style="opacity:1;fill:#ffe6d5;fill-opacity:1;stroke:#ffb7ac;stroke-width:1.08474576;stroke-miterlimit:4;stroke-dasharray:none;stroke-dashoffset:0;stroke-opacity:0;paint-order:fill markers stroke"
     d="m 182.76002,223.78429 c -42.499,-11.91344 -130.027994,-36.34797 -135.279481,-37.76452 -2.829492,-0.76324 -7.832869,-5.79263 -9.965468,-10.01728 -3.682936,-7.29586 -5.52651,-17.15196 -5.531519,-29.57255 -0.0076,-18.81845 4.611942,-28.65631 14.104261,-30.03678 2.78994,-0.40574 -1.729218,-1.78482 58.028137,17.708 21.03051,6.86014 48.3661,15.77195 60.74576,19.80401 12.37966,4.03207 32.61191,10.63333 44.96054,14.66948 l 22.45207,7.33844 -0.33709,7.66358 c -0.1854,4.21497 -0.62343,17.67036 -0.97339,29.90087 -0.34997,12.2305 -0.78306,22.51199 -0.96244,22.84773 -0.22075,0.41319 -15.48598,-3.63921 -47.24138,-12.54098 z"
     id="path5177"
     inkscape:connector-curvature="0"
     transform="matrix(0.65445312,0,0,0.65445312,0,-5e-4)" /><path
     style="opacity:1;fill:#ffe6d5;fill-opacity:1;stroke:#ffb7ac;stroke-width:1.08474576;stroke-miterlimit:4;stroke-dasharray:none;stroke-dashoffset:0;stroke-opacity:0;paint-order:fill markers stroke"
     d="m 281.80179,330.19276 c -0.41818,-4.16419 -1.9923,-58.01328 -1.70426,-58.30132 0.13557,-0.13558 41.3206,-13.65257 91.52229,-30.03776 84.41023,-27.55043 91.47549,-29.76645 93.93074,-29.46137 9.92503,1.23327 14.36797,10.37639 14.41087,29.65615 0.037,16.61982 -3.02435,28.37892 -9.19491,35.31915 -2.2129,2.48894 -6.63709,5.26247 -8.39439,5.26247 -0.45691,0 -33.96333,9.29021 -74.45871,20.64492 -40.49539,11.3547 -80.58391,22.58961 -89.08561,24.96645 -8.50169,2.37685 -15.74686,4.42205 -16.10038,4.54489 -0.42051,0.14612 -0.74057,-0.75066 -0.92564,-2.59358 z"
     id="path5179"
     inkscape:connector-curvature="0"
     transform="matrix(0.65445312,0,0,0.65445312,0,-5e-4)" /><path
     style="opacity:1;fill:#ffe6d5;fill-opacity:1;stroke:#ffb7ac;stroke-width:1.08474576;stroke-miterlimit:4;stroke-dasharray:none;stroke-dashoffset:0;stroke-opacity:0;paint-order:fill markers stroke"
     d="m 266.55663,331.92484 c -4.28982,-1.18646 -211.114147,-52.66833 -216.870094,-53.98243 -3.671742,-0.83826 -3.713688,-0.86802 -3.404367,-2.41462 0.17225,-0.86125 0.595295,-4.92404 0.940102,-9.02842 1.253744,-14.92386 -0.728494,-30.23076 -5.022585,-38.78455 -0.869329,-1.73169 -0.898716,-2.03389 -0.197779,-2.03389 0.727075,0 16.083434,3.10842 44.215736,8.95013 4.922034,1.02206 27.498307,5.66635 50.169487,10.32063 43.05094,8.83815 59.37671,12.19107 105.11274,21.5876 15.15437,3.11349 27.67019,5.77766 27.81291,5.92039 0.14273,0.14273 0.60669,11.09284 1.03101,24.3336 0.42433,13.24075 0.88506,26.81985 1.02385,30.17578 0.18404,4.45051 0.0809,6.08872 -0.38104,6.05376 -0.34835,-0.0264 -2.34184,-0.52046 -4.42997,-1.09798 z"
     id="path5181"
     inkscape:connector-curvature="0"
     transform="matrix(0.65445312,0,0,0.65445312,0,-5e-4)" /><path
     style="opacity:1;fill:#ffe6d5;fill-opacity:1;stroke:#ffb7ac;stroke-width:1.08474576;stroke-miterlimit:4;stroke-dasharray:none;stroke-dashoffset:0;stroke-opacity:0;paint-order:fill markers stroke"
     d="m 225.05534,426.8237 c -0.0332,-8.04039 1.86533,-58.27609 2.21081,-58.49871 0.23146,-0.14915 11.06663,-2.45149 24.07815,-5.11631 l 23.65731,-4.84513 3.57116,0.85445 3.57115,0.85446 13.29696,-4.32149 13.29696,-4.3215 72.46872,-14.88256 c 39.85779,-8.1854 72.80097,-15.00363 73.20706,-15.15161 0.52906,-0.19278 0.62237,0.002 0.32918,0.68626 -1.95235,4.55806 -4.2042,12.34444 -4.91718,17.00243 -0.68848,4.49793 -0.79666,8.07711 -0.53134,17.57999 0.18322,6.56271 0.47086,12.91226 0.63919,14.1101 l 0.30605,2.1779 -111.90924,27.86571 c -61.55009,15.32614 -112.21433,27.97898 -112.58721,28.11741 -0.47632,0.17684 -0.68087,-0.45117 -0.68773,-2.1114 z"
     id="path5183"
     inkscape:connector-curvature="0"
     transform="matrix(0.65445312,0,0,0.65445312,0,-5e-4)" /><path
     style="opacity:1;fill:#ffe6d5;fill-opacity:1;stroke:#ffb7ac;stroke-width:1.08474576;stroke-miterlimit:4;stroke-dasharray:none;stroke-dashoffset:0;stroke-opacity:0;paint-order:fill markers stroke"
     d="M 199.30239,424.63952 C 177.21081,418.41675 68.48323,387.9422 50.692219,382.98653 c -8.352542,-2.3266 -16.064465,-4.38469 -17.137607,-4.57355 -2.420367,-0.42596 -6.36648,-3.18087 -8.642843,-6.03387 -5.99972,-7.51952 -9.160218,-21.65409 -8.48618,-37.95242 0.693873,-16.77791 5.261605,-25.0444 14.43913,-26.13134 2.080539,-0.24641 3.797551,0.0798 8.505279,1.61568 3.244171,1.05843 11.878153,3.87612 19.186628,6.26153 7.308474,2.38542 23.783051,7.7568 36.610169,11.9364 34.184315,11.13865 98.792215,32.19788 110.372885,35.97652 5.51864,1.80067 10.25838,3.48382 10.53275,3.74033 0.38774,0.36251 -1.09876,60.73904 -1.50265,61.03259 -0.0445,0.0324 -6.91485,-1.86614 -15.26739,-4.21888 z"
     id="path5185"
     inkscape:connector-curvature="0"
     transform="matrix(0.65445312,0,0,0.65445312,0,-5e-4)" /><path
     style="opacity:1;fill:#f4e3d7;fill-opacity:1;stroke:#ffb7ac;stroke-width:2.16949153;stroke-miterlimit:4;stroke-dasharray:none;stroke-dashoffset:0;stroke-opacity:0;paint-order:fill markers stroke"
     d="m 240.64158,236.48807 c -0.65064,-1.21012 1.68969,-59.21867 2.41565,-59.87528 0.39807,-0.36004 40.50681,-8.80515 89.13054,-18.7669 48.62373,-9.96175 99.27658,-20.3567 112.56188,-23.09988 13.28529,-2.74319 24.41476,-4.72794 24.73214,-4.41056 0.31738,0.31738 -0.52675,3.68487 -1.87586,7.48332 -2.16739,6.10234 -2.45943,9.04509 -2.5088,25.28 l -0.0559,18.37372 -112.0266,27.82998 c -61.61464,15.30649 -112.18252,27.54001 -112.37308,27.1856 z"
     id="path5187"
     inkscape:connector-curvature="0"
     transform="matrix(0.65445312,0,0,0.65445312,0,-5e-4)" /><path
     style="opacity:1;fill:#f4e3d7;fill-opacity:1;stroke:#ffb7ac;stroke-width:2.16949153;stroke-miterlimit:4;stroke-dasharray:none;stroke-dashoffset:0;stroke-opacity:0;paint-order:fill markers stroke"
     d="m 240.69576,219.31223 c 0.3485,-9.99922 0.94118,-23.79397 1.31707,-30.65498 l 0.68342,-12.47458 109.01695,-22.46155 c 59.95932,-12.35385 111.16586,-22.7933 113.79232,-23.19878 4.3443,-0.67069 4.71808,-0.55253 4.14076,1.309 -4.1157,13.2708 -4.28644,14.49853 -4.42965,31.85331 l -0.1475,17.87485 -109.55932,27.22514 C 295.25218,223.75846 244.6256,236.34342 243.0063,236.7512 l -2.94418,0.74143 z"
     id="path5189"
     inkscape:connector-curvature="0"
     transform="matrix(0.65445312,0,0,0.65445312,0,-5e-4)" /><path
     style="opacity:1;fill:#f4e3d7;fill-opacity:1;stroke:#ffb7ac;stroke-width:2.16949153;stroke-miterlimit:4;stroke-dasharray:none;stroke-dashoffset:0;stroke-opacity:0;paint-order:fill markers stroke"
     d="m 135.84879,210.85762 -90.576272,-25.38025 -4.084751,-4.53478 c -6.395858,-7.1005 -8.89085,-16.63073 -8.913698,-34.04805 -0.012,-9.14447 0.498523,-15.56437 1.452262,-18.26253 2.069743,-5.85538 7.237261,-11.37604 11.357864,-12.13405 3.103146,-0.57085 61.870765,17.99208 175.730905,55.50812 l 11.74599,3.87021 -0.64888,15.882 c -1.84848,45.24412 -1.79769,44.63254 -3.69997,44.55367 -0.98295,-0.0408 -42.5465,-11.4952 -92.36345,-25.45434 z"
     id="path5191"
     inkscape:connector-curvature="0"
     transform="matrix(0.65445312,0,0,0.65445312,0,-5e-4)" /><path
     style="opacity:1;fill:#f4e3d7;fill-opacity:1;stroke:#ffb7ac;stroke-width:2.16949153;stroke-miterlimit:4;stroke-dasharray:none;stroke-dashoffset:0;stroke-opacity:0;paint-order:fill markers stroke"
     d="m 281.96335,332.159 c -0.27978,-0.47173 -0.85906,-14.28141 -1.28729,-30.68819 l -0.7786,-29.83051 39.43329,-12.82247 c 21.68831,-7.05236 62.52437,-20.35405 90.7468,-29.55932 28.22244,-9.20527 52.77549,-16.73686 54.56234,-16.73686 5.25941,0 9.21686,2.7675 11.97917,8.37719 2.36194,4.79664 2.54949,6.47323 2.52118,22.53807 -0.0277,15.67809 -0.27964,17.98512 -2.60706,23.86441 -3.25727,8.22817 -8.90643,14.02791 -15.29998,15.70782 -5.20324,1.36715 -173.94175,48.5217 -176.95414,49.45043 -0.99386,0.30641 -2.03593,0.17116 -2.31571,-0.30057 z"
     id="path5193"
     inkscape:connector-curvature="0"
     transform="matrix(0.65445312,0,0,0.65445312,0,-5e-4)" /><path
     style="opacity:1;fill:#f4e3d7;fill-opacity:1;stroke:#ffb7ac;stroke-width:2.16949153;stroke-miterlimit:4;stroke-dasharray:none;stroke-dashoffset:0;stroke-opacity:0;paint-order:fill markers stroke"
     d="M 157.5437,304.9911 C 96.391163,289.7582 46.286874,277.24296 46.200842,277.17947 c -0.08603,-0.0635 0.256644,-4.50866 0.761504,-9.87815 1.122824,-11.94192 -0.332413,-27.66223 -3.278432,-35.41552 -1.186089,-3.12153 -1.99417,-5.83787 -1.795735,-6.0363 0.198436,-0.19844 36.186853,6.99425 79.974261,15.98376 43.78741,8.9895 93.7694,19.2501 111.0711,22.80132 17.30169,3.55122 32.52087,6.70282 33.82038,7.00354 2.98313,0.69033 3.30843,3.51146 4.22177,36.61235 0.56156,20.35196 0.42443,24.65683 -0.78231,24.55739 -0.80478,-0.0663 -51.49713,-12.58385 -112.64968,-27.81676 z"
     id="path5195"
     inkscape:connector-curvature="0"
     transform="matrix(0.65445312,0,0,0.65445312,0,-5e-4)" /><path
     style="opacity:1;fill:#f4e3d7;fill-opacity:1;stroke:#ffb7ac;stroke-width:2.16949153;stroke-miterlimit:4;stroke-dasharray:none;stroke-dashoffset:0;stroke-opacity:0;paint-order:fill markers stroke"
     d="m 225.24458,410.22744 c 0.37441,-10.59581 0.96241,-24.41834 1.30668,-30.71673 l 0.62593,-11.45161 24.03071,-4.89793 c 17.02396,-3.46982 24.96217,-4.64874 27.22525,-4.04327 2.42513,0.64882 6.86658,-0.28028 18.44068,-3.85759 8.38538,-2.59174 25.25293,-6.74257 37.48343,-9.22408 12.23051,-2.4815 44.20339,-9.05641 71.05085,-14.61091 26.84746,-5.5545 48.95998,-9.98625 49.13893,-9.84833 0.17895,0.13792 -0.79194,3.35859 -2.15754,7.15704 -2.22272,6.18256 -2.48415,8.87036 -2.49486,25.64935 l -0.0119,18.74307 -3.79661,1.01157 c -2.08814,0.55636 -52.12204,12.99371 -111.18644,27.63855 -59.06441,14.64485 -108.05268,26.87202 -108.86282,27.17149 -1.22182,0.45165 -1.35691,-2.74045 -0.79224,-18.72062 z"
     id="path5199"
     inkscape:connector-curvature="0"
     transform="matrix(0.65445312,0,0,0.65445312,0,-5e-4)" /><path
     style="opacity:1;fill:#f4e3d7;fill-opacity:1;stroke:#ffb7ac;stroke-width:2.16949153;stroke-miterlimit:4;stroke-dasharray:none;stroke-dashoffset:0;stroke-opacity:0;paint-order:fill markers stroke"
     d="M 153.74709,412.0128 C 122.12676,403.10178 81.382056,391.65759 63.203317,386.58125 35.884816,378.95267 29.61071,376.83852 27.036177,374.39422 19.471708,367.21242 16.116288,354.55719 16.760926,335.6403 c 0.349214,-10.24772 0.932714,-14.10695 2.742776,-18.14056 2.494097,-5.55794 7.635237,-9.54398 12.209494,-9.46629 1.491526,0.0253 43.471187,13.35351 93.288134,29.61819 l 90.57627,29.57213 0.36861,5.36081 c 0.20274,2.94844 0.026,16.70996 -0.39256,30.58114 -0.67549,22.38142 -0.96119,25.2107 -2.5381,25.13462 -0.97731,-0.0471 -27.64812,-7.37653 -59.26846,-16.28754 z"
     id="path5201"
     inkscape:connector-curvature="0"
     transform="matrix(0.65445312,0,0,0.65445312,0,-5e-4)" /><path
     style="opacity:1;fill:#a05a2c;fill-opacity:1;stroke:#ffb7ac;stroke-width:2.16949153;stroke-miterlimit:4;stroke-dasharray:none;stroke-dashoffset:0;stroke-opacity:0;paint-order:fill markers stroke"
     d="M 118.13218,424.23744 C 14.117346,390.27875 18.520812,392.05813 11.219822,381.03565 3.4856298,369.35914 -1.280263,343.62516 1.0567157,326.15877 c 1.4881378,-11.12221 4.6326199,-19.71424 9.5920103,-26.20936 2.094353,-2.74289 3.663521,-5.02614 3.487041,-5.07388 -9.3673288,-2.5341 -13.25033086,-3.96442 -13.59427456,-5.00751 -0.84536168,-2.56378 8.62058366,-7.76733 22.39802056,-12.31247 l 13.993068,-4.61629 0.708867,-9.32745 c 0.934063,-12.29063 -0.809233,-23.95127 -4.804502,-32.13657 -3.430561,-7.02836 -6.784046,-10.13962 -13.525025,-12.54813 -4.255042,-1.5203 -11.4631314,-7.37403 -11.4631314,-9.30927 0,-2.84513 3.7124164,-5.04151 13.4762944,-7.97296 5.914304,-1.77568 10.974031,-3.44926 11.243838,-3.71907 0.269807,-0.2698 -1.036144,-2.41817 -2.902114,-4.77415 C 21.058924,182.28332 16.407567,165.66292 16.266013,145.26742 16.136332,126.58253 19.628277,115.38 28.624426,105.62033 36.956733,96.580844 29.012121,98.068556 185.04878,76.32821 l 142.25764,-19.820536 86.77966,26.082304 c 47.72881,14.345267 87.38983,26.565812 88.13559,27.156762 2.12401,1.68309 1.59375,5.63095 -1.09569,8.15755 -1.34839,1.26675 -5.14961,3.49636 -8.44718,4.95469 -7.55053,3.33921 -13.38952,9.71773 -15.7371,17.19126 -1.93797,6.16953 -3.36756,27.67736 -2.23478,33.62191 0.64854,3.40343 1.13319,3.73063 9.08298,6.13227 18.27088,5.51964 28.46163,10.98038 27.10229,14.52282 -0.29797,0.77649 -6.21481,2.79543 -13.14852,4.48654 -6.93371,1.6911 -12.60674,3.29647 -12.60674,3.5675 0,0.27102 1.23604,2.29737 2.74677,4.503 5.52512,8.06661 7.56444,17.56407 7.4993,34.92551 -0.0894,23.82422 -4.9513,39.28311 -15.75147,50.08329 -2.8595,2.85948 -4.86515,5.37681 -4.45702,5.59405 0.40815,0.21723 3.08045,1.02732 5.93848,1.8002 5.50808,1.48952 7.83978,4.12888 6.73174,7.62 -0.81054,2.55378 -5.68322,6.15123 -10.52423,7.76994 -10.70371,3.57902 -16.83392,13.92008 -18.02955,30.41401 -0.40166,5.54094 -0.48623,13.13257 -0.18792,16.87029 l 0.54237,6.79583 13.56464,4.61005 c 7.46054,2.53552 15.21918,5.57909 17.2414,6.76348 3.99855,2.34189 6.43799,5.40658 5.24954,6.59503 -0.41197,0.41197 -24.31335,6.47693 -53.11417,13.47768 -129.77969,31.54614 -228.13865,55.30394 -228.63633,55.22521 -0.2983,-0.0472 -43.41653,-14.08333 -95.8183,-31.19141 z m 97.3064,-6.97002 c 0.33955,-6.71187 0.89422,-20.62882 1.23261,-30.92657 l 0.61524,-18.72318 -2.82235,-1.07306 C 198.97486,360.65562 34.25586,307.97928 31.330197,307.97928 c -5.296671,0 -10.884779,5.00571 -13.074204,11.7116 -5.427387,16.6233 -1.65972,44.33112 7.361698,54.1387 3.293723,3.58075 5.833893,4.36698 95.587029,29.58573 50.71187,14.24897 92.52134,25.94059 92.90994,25.98137 0.3886,0.0408 0.98436,-5.4174 1.32392,-12.12926 z m 124.52772,-16.24171 110.28701,-27.41931 0.38911,-20.0678 c 0.33433,-17.24177 0.71676,-20.94615 2.71564,-26.30508 1.27959,-3.43051 1.92573,-6.23729 1.43587,-6.23729 -0.48987,0 -33.03598,6.59414 -72.32469,14.65364 -44.98765,9.22855 -76.74799,16.30251 -85.78756,19.1074 -10.44141,3.23987 -15.34405,4.26795 -17.9877,3.77199 -3.77687,-0.70855 -50.09775,8.09897 -51.77305,9.84421 -0.47197,0.49167 -1.21204,14.51477 -1.6446,31.16244 l -0.78648,30.2685 2.59473,-0.67969 c 1.4271,-0.37384 52.22388,-13.01838 112.88172,-28.09901 z m -68.49552,-85.15013 c -0.14796,-9.41415 -0.58107,-23.19706 -0.96245,-30.6287 l -0.69344,-13.51206 -11.9322,-2.41991 C 251.31998,267.98396 200.65234,257.5898 145.28794,246.2168 89.92354,234.84379 43.660157,225.5386 42.480422,225.5386 c -2.003956,0 -2.040919,0.20122 -0.562236,3.06068 3.460779,6.6924 5.315437,20.65957 4.670102,35.16984 -0.602625,13.54994 -0.566568,13.84779 1.746315,14.42527 130.124937,32.48903 222.661367,55.36171 222.985117,55.11629 0.23105,-0.17515 0.29902,-8.02094 0.15106,-17.4351 z m 103.72065,-8.38231 c 52.78289,-14.77977 91.99891,-26.29758 93.61131,-27.49381 7.69196,-5.70661 12.94693,-25.10303 11.65809,-43.03077 -1.06521,-14.81712 -4.89593,-22.24308 -12.67675,-24.57427 -3.66419,-1.09781 -10.02847,0.81518 -96.31691,28.95123 l -92.3935,30.12672 0.52734,12.55855 c 0.29003,6.90719 0.82148,20.7348 1.181,30.72802 0.51003,14.17719 0.97438,18.16949 2.11332,18.16949 0.80281,0 42.33606,-11.44582 92.2961,-25.43516 z M 230.70939,235.03013 c 0.29099,-1.34237 0.66639,-15.34614 0.83423,-31.11948 l 0.30517,-28.67879 -27.11864,-8.92486 C 84.43982,126.71898 49.536003,115.78432 45.272518,116.35217 c -5.521375,0.73539 -9.600271,5.12998 -11.876871,12.79613 -2.000074,6.73498 -2.265799,26.2558 -0.473407,34.77759 1.557856,7.40671 5.611951,16.0345 9.053762,19.26791 2.139386,2.00984 20.080847,7.39815 85.442948,25.6608 45.5042,12.7142 86.88408,24.31737 91.95526,25.7848 11.4711,3.31937 10.70608,3.293 11.33518,0.39073 z m 123.50283,-25.54416 111.51598,-27.87957 0.29438,-19.52542 c 0.25486,-16.90442 0.61144,-20.38659 2.65632,-25.9407 1.29907,-3.5284 2.19039,-6.58683 1.9807,-6.79652 -0.4128,-0.41279 -227.59377,46.10774 -228.21915,46.73313 -0.44744,0.44744 -2.37593,43.4781 -2.42332,54.07188 -0.0232,5.17921 0.36407,7.30663 1.32319,7.26941 0.74576,-0.029 51.53811,-12.59844 112.8719,-27.93221 z"
     id="path5203"
     inkscape:connector-curvature="0"
     transform="matrix(0.65445312,0,0,0.65445312,0,-5e-4)" /></svg>