<?xml version="1.0" encoding="UTF-8" standalone="no"?>
<!-- Generator: Adobe Illustrator 19.0.0, SVG Export Plug-In . SVG Version: 6.00 Build 0)  -->

<svg
   xmlns:dc="http://purl.org/dc/elements/1.1/"
   xmlns:cc="http://creativecommons.org/ns#"
   xmlns:rdf="http://www.w3.org/1999/02/22-rdf-syntax-ns#"
   xmlns:svg="http://www.w3.org/2000/svg"
   xmlns="http://www.w3.org/2000/svg"
   xmlns:sodipodi="http://sodipodi.sourceforge.net/DTD/sodipodi-0.dtd"
   xmlns:inkscape="http://www.inkscape.org/namespaces/inkscape"
   version="1.1"
   id="Layer_1"
   x="0px"
   y="0px"
   viewBox="0 0 512 512"
   style="enable-background:new 0 0 512 512;"
   xml:space="preserve"
   sodipodi:docname="practice.svg"
   inkscape:version="0.92.1 r15371"><metadata
     id="metadata5278"><rdf:RDF><cc:Work
         rdf:about=""><dc:format>image/svg+xml</dc:format><dc:type
           rdf:resource="http://purl.org/dc/dcmitype/StillImage" /></cc:Work></rdf:RDF></metadata><defs
     id="defs5276" /><sodipodi:namedview
     pagecolor="#ffffff"
     bordercolor="#666666"
     borderopacity="1"
     objecttolerance="10"
     gridtolerance="10"
     guidetolerance="10"
     inkscape:pageopacity="0"
     inkscape:pageshadow="2"
     inkscape:window-width="1920"
     inkscape:window-height="1017"
     id="namedview5274"
     showgrid="false"
     inkscape:zoom="0.65186406"
     inkscape:cx="94.900954"
     inkscape:cy="548.41073"
     inkscape:window-x="-8"
     inkscape:window-y="-8"
     inkscape:window-maximized="1"
     inkscape:current-layer="Layer_1" /><rect
     x="9.575"
     y="16.859"
     style="fill:#CFDCE5;"
     width="357.981"
     height="478.271"
     id="rect5205" /><path
     style="fill:#4EBFED;"
     d="M426.661,99.578l38.502-82.713l38.502,82.713v371.667c0,13.194-10.695,23.89-23.89,23.89H450.55  c-13.194,0-23.89-10.695-23.89-23.89V99.578H426.661z"
     id="path5207" /><path
     style="fill:#FF6F52;"
     d="M503.664,432.058v39.185c0,13.193-10.698,23.891-23.891,23.891h-29.228  c-13.193,0-23.879-10.698-23.879-23.891v-39.185H503.664z"
     id="path5209" /><rect
     x="466.057"
     y="99.576"
     style="fill:#97E1F7;"
     width="14.326"
     height="332.478"
     id="rect5211" /><path
     style="fill:#3BA4BC;"
     d="M426.661,471.246c0,13.194,10.695,23.89,23.89,23.89h7.285c-6.616,0-11.98-10.695-11.98-23.89V99.578  l19.307-82.713l-38.502,82.713V471.246z"
     id="path5213" /><polygon
     style="fill:#FCD577;"
     points="503.664,99.579 426.666,99.579 465.159,16.863 "
     id="polygon5215" /><path
     style="fill:#D33F22;"
     d="M457.84,495.134h-7.295c-13.193,0-23.879-10.698-23.879-23.891v-39.185h19.187v39.185  C445.853,484.436,451.226,495.134,457.84,495.134z"
     id="path5217" /><polygon
     style="fill:#EAC36E;"
     points="445.853,99.579 426.666,99.579 465.159,16.863 "
     id="polygon5219" /><path
     d="M366.941,7.91H8.955C4.009,7.91,0,11.92,0,16.865v49.863c0,4.945,4.009,8.955,8.955,8.955s8.955-4.009,8.955-8.955V25.82  h340.078V486.18H17.909V96.577c0-4.945-4.009-8.955-8.955-8.955S0,91.631,0,96.577v398.558c0,4.945,4.009,8.955,8.955,8.955h357.987  c4.945,0,8.955-4.009,8.955-8.955V16.865C375.896,11.92,371.888,7.91,366.941,7.91z"
     id="path5221" /><path
     d="M503.045,347.889c4.945,0,8.955-4.009,8.955-8.955V99.578c0-1.306-0.285-2.596-0.837-3.779l-38.504-82.713  c-1.47-3.157-4.636-5.176-8.118-5.176s-6.648,2.019-8.118,5.176l-38.502,82.713c-0.55,1.183-0.837,2.474-0.837,3.779v371.667  c0,18.11,14.733,32.844,32.844,32.844h29.227c18.11,0,32.844-14.733,32.844-32.844V368.782c0-4.945-4.009-8.955-8.955-8.955  s-8.955,4.009-8.955,8.955v54.32h-59.097V108.533h59.097v230.402C494.091,343.88,498.1,347.889,503.045,347.889z M464.542,38.084  l24.457,52.54h-48.915L464.542,38.084z M494.091,441.012v30.234c0,8.235-6.699,14.935-14.935,14.935h-29.227  c-8.235,0-14.935-6.699-14.935-14.935v-30.234H494.091z"
     id="path5223" /><path
     d="M283.758,79.263H92.139c-4.945,0-8.955,4.009-8.955,8.955c0,4.945,4.009,8.955,8.955,8.955h191.619  c4.945,0,8.955-4.009,8.955-8.955C292.713,83.272,288.703,79.263,283.758,79.263z"
     id="path5225" /><path
     d="M313.216,171.352h-36.412c-4.945,0-8.955,4.009-8.955,8.955s4.009,8.955,8.955,8.955h36.413  c4.945,0,8.955-4.009,8.955-8.955S318.162,171.352,313.216,171.352z"
     id="path5227" /><path
     d="M53.725,180.307c0,4.945,4.009,8.955,8.955,8.955h184.276c4.945,0,8.955-4.009,8.955-8.955s-4.009-8.955-8.955-8.955H62.68  C57.733,171.352,53.725,175.361,53.725,180.307z"
     id="path5229" /><path
     d="M62.68,282.006h250.538c4.945,0,8.955-4.009,8.955-8.955s-4.009-8.955-8.955-8.955H62.68c-4.945,0-8.955,4.009-8.955,8.955  S57.733,282.006,62.68,282.006z"
     id="path5231" /><path
     d="M313.216,217.725H135.329c-4.945,0-8.955,4.009-8.955,8.955s4.009,8.955,8.955,8.955h177.887  c4.945,0,8.955-4.009,8.955-8.955S318.162,217.725,313.216,217.725z"
     id="path5233" /><path
     d="M62.68,235.634h42.802c4.945,0,8.955-4.009,8.955-8.955s-4.009-8.955-8.955-8.955H62.68c-4.945,0-8.955,4.009-8.955,8.955  S57.733,235.634,62.68,235.634z"
     id="path5235" /><path
     d="M62.68,421.123h250.538c4.945,0,8.955-4.009,8.955-8.955s-4.009-8.955-8.955-8.955H62.68c-4.945,0-8.955,4.009-8.955,8.955  S57.733,421.123,62.68,421.123z"
     id="path5237" /><path
     d="M313.216,356.843h-59.694c-4.945,0-8.955,4.009-8.955,8.955s4.009,8.955,8.955,8.955h59.694  c4.945,0,8.955-4.009,8.955-8.955S318.162,356.843,313.216,356.843z"
     id="path5239" /><path
     d="M62.68,374.752h160.995c4.945,0,8.955-4.009,8.955-8.955s-4.009-8.955-8.955-8.955H62.68c-4.945,0-8.955,4.009-8.955,8.955  S57.733,374.752,62.68,374.752z"
     id="path5241" /><g
     id="g5243" /><g
     id="g5245" /><g
     id="g5247" /><g
     id="g5249" /><g
     id="g5251" /><g
     id="g5253" /><g
     id="g5255" /><g
     id="g5257" /><g
     id="g5259" /><g
     id="g5261" /><g
     id="g5263" /><g
     id="g5265" /><g
     id="g5267" /><g
     id="g5269" /><g
     id="g5271" /><path
     style="opacity:1;fill:#e3dedb;fill-opacity:1;stroke:#ffb7ac;stroke-width:2.16949153;stroke-miterlimit:4;stroke-dasharray:none;stroke-dashoffset:0;stroke-opacity:0;paint-order:fill markers stroke"
     d="M 18.27233,290.28342 C 18.27233,77.484931 18.622753,89.520624 12.381455,87.954159 10.105371,87.382898 9.7390108,86.57612 9.4181344,81.42849 9.102473,76.364523 9.3205173,75.554876 10.999603,75.556152 c 1.071186,8.12e-4 3.145763,-1.196672 4.610169,-2.661079 2.649812,-2.649813 2.662558,-2.766651 2.662558,-24.40678 V 26.744071 H 188.03504 357.79775 V 256.1678 485.59153 H 188.03504 18.27233 Z m 301.65529,128.20489 c 3.15532,-3.8969 2.77199,-10.2916 -0.78463,-13.08924 -2.85505,-2.24578 -2.99777,-2.24822 -131.60752,-2.24822 H 58.786096 l -2.575527,2.74152 c -3.704234,3.94298 -3.514727,9.74871 0.428938,13.14092 l 3.004466,2.58433 129.105057,-0.28424 129.10505,-0.28422 z m -91.12061,-44.93128 c 4.97634,-3.82072 5.4186,-9.53504 1.07418,-13.87945 l -3.17079,-3.1708 H 143.16203 59.613648 l -2.989303,2.5713 c -2.276438,1.9581 -2.989303,3.54372 -2.989303,6.64904 0,3.10533 0.712865,4.69094 2.989303,6.64905 l 2.989303,2.57129 83.736112,-0.0345 c 64.11355,-0.0265 84.13945,-0.34417 85.45725,-1.35594 z m 90.33598,-0.85779 c 3.91683,-3.08098 4.0127,-9.71279 0.19559,-13.52989 l -2.66255,-2.66257 h -33.07356 -33.07356 l -2.98931,2.5713 c -2.27644,1.9581 -2.9893,3.54372 -2.9893,6.64904 0,3.10533 0.71286,4.69094 2.9893,6.64905 l 2.98931,2.57129 h 32.87797 c 31.61923,0 32.98739,-0.086 35.73611,-2.24822 z m -1.55841,-91.54216 c 5.3883,-2.78641 6.22626,-10.43631 1.61748,-14.7663 l -2.79909,-2.62976 -126.01447,-0.3215 c -89.23853,-0.22766 -127.214663,0.0264 -130.126972,0.8705 -5.538965,1.60545 -8.286696,6.86996 -6.206654,11.89161 2.831431,6.83568 -5.07759,6.45142 133.762846,6.49901 109.13468,0.0374 127.12337,-0.17657 129.76686,-1.54356 z M 111.77767,232.79544 c 2.857,-2.857 3.21746,-3.84867 2.66142,-7.32203 -1.21364,-7.58109 -2.12218,-7.81408 -30.470727,-7.81408 H 58.786096 l -2.575527,2.74152 c -3.697698,3.93602 -3.514481,9.74892 0.413776,13.12786 2.953646,2.54063 3.280703,2.57129 27.419036,2.57129 h 24.429729 z m 208.15005,0.20134 c 3.15521,-3.89694 2.77183,-10.29164 -0.78473,-13.08923 -2.84071,-2.2345 -3.42195,-2.24822 -95.26853,-2.24822 h -92.4104 l -2.57553,2.74152 c -3.70662,3.94552 -3.51481,9.74863 0.4345,13.14568 l 3.01002,2.58912 92.76063,-0.28901 92.76062,-0.28901 z m -66.75863,-46.20341 c 3.62251,-3.62251 3.62251,-9.49304 0,-13.11555 l -2.66255,-2.66256 H 155.06009 59.613648 l -2.989303,2.57129 c -2.276438,1.95811 -2.989303,3.54372 -2.989303,6.64905 0,3.10532 0.712865,4.69094 2.989303,6.64904 l 2.989303,2.5713 h 95.446442 95.44645 z m 65.9739,0.41434 c 3.91683,-3.08098 4.0127,-9.71279 0.19559,-13.52989 -2.65021,-2.65022 -2.76359,-2.66256 -24.45608,-2.66256 -21.69249,0 -21.80587,0.0124 -24.45608,2.66256 -1.83829,1.83828 -2.66256,3.86843 -2.66256,6.55778 0,2.68934 0.82427,4.7195 2.66256,6.55777 2.6486,2.64862 2.77568,2.66257 24.26049,2.66257 20.20752,0 21.78193,-0.14474 24.45608,-2.24823 z M 290.05045,94.589988 c 2.62021,-2.620205 3.4368,-7.074569 1.98874,-10.848166 -1.91277,-4.984576 -0.74848,-4.929955 -105.08433,-4.929955 H 88.682192 l -2.662559,2.662558 c -4.029157,4.029158 -3.958105,9.623947 0.16938,13.337443 l 2.71277,2.440677 h 99.243057 99.24305 z"
     id="path5823"
     inkscape:connector-curvature="0" /><path
     style="opacity:1;fill:#e6e6e6;fill-opacity:1;stroke:#ffb7ac;stroke-width:2.16949153;stroke-miterlimit:4;stroke-dasharray:none;stroke-dashoffset:0;stroke-opacity:0;paint-order:fill markers stroke"
     d="M 18.029391,289.52373 C 17.789943,132.73387 17.452053,92.969565 16.342714,91.028065 15.579731,89.692737 13.824683,88.316386 12.442608,87.969507 10.391394,87.454685 9.7335914,86.256633 8.8620358,81.448224 7.9029197,76.156742 7.9871669,75.55763 9.6903726,75.55763 c 7.5104434,0 8.5819574,-3.514654 8.5819574,-28.149521 V 26.744071 H 188.03504 357.79775 V 256.1678 485.59153 H 188.06329 18.328824 Z M 319.92762,418.48831 c 2.65577,-3.27995 2.65579,-8.95426 3e-5,-12.23424 l -2.07349,-2.56085 -129.51791,-0.28834 -129.517909,-0.28835 -2.277691,2.45784 c -3.743385,4.03945 -3.660028,9.50373 0.203924,13.36768 l 2.675634,2.67563 129.216942,-0.28427 129.21693,-0.28425 z m -89.39308,-47.24325 c 3.33826,-3.88137 2.82057,-8.63765 -1.33848,-12.2976 l -2.77352,-2.44068 H 142.90829 59.394056 l -2.662558,2.66257 c -3.829119,3.8291 -3.721469,10.44872 0.220345,13.54936 2.87558,2.26193 3.096243,2.26696 86.873867,1.97704 l 83.99096,-0.29066 z m 89.39415,0.59918 c 2.95577,-3.65235 2.68835,-9.39645 -0.59011,-12.67489 l -2.66255,-2.66257 h -33.07356 c -32.88216,0 -33.09024,0.0143 -35.9544,2.47799 -4.07929,3.50887 -4.05479,9.99691 0.0511,13.52865 l 2.93191,2.52193 33.61259,-0.31513 33.61258,-0.31513 z m -0.72643,-92.2723 c 3.64475,-3.42452 3.73484,-8.63573 0.21994,-12.72204 l -2.57895,-2.9982 -128.5601,-0.0453 c -127.066379,-0.0448 -128.588107,-0.0201 -130.969278,2.12415 -3.717735,3.34789 -4.546602,6.60135 -2.766919,10.86074 1.690548,4.04604 3.101434,4.63312 12.538937,5.21745 3.281355,0.20316 60.72016,0.32971 127.64179,0.2812 l 121.67571,-0.0882 2.79887,-2.62976 z M 111.64391,232.9292 c 3.39067,-3.39066 3.89147,-5.99287 1.96643,-10.21787 -2.08342,-4.57259 -4.99267,-5.052 -30.657591,-5.052 -24.056192,0 -24.177749,0.0118 -26.594145,2.58395 -4.151137,4.41868 -2.815206,12.66661 2.391418,14.76441 1.303371,0.52513 13.024263,0.98574 26.046428,1.02355 l 23.67666,0.0688 z m 208.28381,0.0676 c 2.65566,-3.27995 2.65566,-8.95428 0,-12.23424 l -2.07343,-2.56084 -93.17853,-0.28884 -93.17852,-0.28884 -2.27817,2.45833 c -3.74569,4.04194 -3.66061,9.50409 0.20829,13.37299 l 2.68044,2.68044 92.87325,-0.28908 92.87325,-0.28907 z m -66.75863,-46.20341 c 3.57153,-3.57151 3.57258,-9.05567 0.002,-12.90785 l -2.65974,-2.87026 H 154.95278 59.394056 l -2.662558,2.66256 c -3.817107,3.8171 -3.721235,10.44891 0.195595,13.52989 2.842285,2.23574 3.387516,2.24823 98.218797,2.24823 h 95.36065 z m 66.76044,-0.44065 c 2.65329,-3.2799 2.65335,-8.95421 1.5e-4,-12.23424 -2.02413,-2.50234 -2.53664,-2.56863 -22.43039,-2.90117 -11.19741,-0.18717 -21.47886,-0.0592 -22.84767,0.28433 -5.73221,1.43868 -8.89253,9.31114 -5.49734,13.69405 3.05262,3.94067 5.28232,4.26801 27.18203,3.99055 21.1555,-0.26803 21.55685,-0.31624 23.59322,-2.83352 z M 290.05045,94.589988 c 2.98887,-2.988869 3.58389,-8.679746 1.24234,-11.882002 -0.78112,-1.068246 -3.5879,-2.360623 -6.23728,-2.87195 -2.6494,-0.511327 -47.82848,-0.950944 -100.39798,-0.976927 l -95.580886,-0.04724 -2.859783,2.859785 c -3.78905,3.789049 -3.87232,9.243242 -0.197228,12.918336 l 2.662559,2.662557 h 99.352848 99.35285 z"
     id="path5825"
     inkscape:connector-curvature="0" /><path
     style="opacity:1;fill:#333333;fill-opacity:1;stroke:#ffb7ac;stroke-width:1.08474576;stroke-miterlimit:4;stroke-dasharray:none;stroke-dashoffset:0;stroke-opacity:0;paint-order:fill markers stroke"
     d="m 60.905753,188.38869 c -6.309147,-0.87489 -8.820559,-8.46596 -4.5831,-13.85301 2.492433,-3.16862 -3.372556,-2.99077 98.625217,-2.99077 92.30518,0 93.90442,0.0178 95.96277,1.06789 5.82458,2.97148 6.15794,11.32137 0.60148,15.06586 l -1.8136,1.22218 -93.07233,-0.0725 c -51.18979,-0.0399 -94.263982,-0.23772 -95.720437,-0.43969 z"
     id="path5829"
     inkscape:connector-curvature="0" /><path
     style="opacity:1;fill:#333333;fill-opacity:1;stroke:#ffb7ac;stroke-width:1.08474576;stroke-miterlimit:4;stroke-dasharray:none;stroke-dashoffset:0;stroke-opacity:0;paint-order:fill markers stroke"
     d="m 274.80809,188.42159 c -2.78607,-0.59389 -4.10539,-1.45542 -5.37525,-3.51011 -2.36634,-3.8288 -1.1341,-9.01851 2.83996,-11.96077 1.49285,-1.10526 2.07514,-1.13461 22.50847,-1.13461 19.16896,0 21.12989,0.084 22.76267,0.97548 5.17277,2.82418 5.3475,11.54922 0.29758,14.85946 -1.3627,0.89325 -3.22198,0.98719 -21.31403,1.07691 -10.9016,0.0541 -20.67533,-0.0838 -21.7194,-0.30636 z"
     id="path5831"
     inkscape:connector-curvature="0" /><path
     style="opacity:1;fill:#333333;fill-opacity:1;stroke:#ffb7ac;stroke-width:1.08474576;stroke-miterlimit:4;stroke-dasharray:none;stroke-dashoffset:0;stroke-opacity:0;paint-order:fill markers stroke"
     d="m 88.458768,96.171975 c -1.591208,-0.643711 -3.814151,-3.433887 -4.576764,-5.744628 -1.37606,-4.169505 2.188345,-9.987055 6.62954,-10.820228 0.991141,-0.185939 44.998926,-0.243714 97.795076,-0.12839 75.76891,0.165505 96.45007,0.355189 98.16249,0.900329 7.06392,2.248765 8.10066,11.375056 1.73324,15.257517 -1.70169,1.037589 -3.52504,1.056236 -100.17392,1.024473 -54.14237,-0.01779 -98.948721,-0.237876 -99.569662,-0.489073 z"
     id="path5833"
     inkscape:connector-curvature="0" /><path
     style="opacity:1;fill:#333333;fill-opacity:1;stroke:#ffb7ac;stroke-width:1.08474576;stroke-miterlimit:4;stroke-dasharray:none;stroke-dashoffset:0;stroke-opacity:0;paint-order:fill markers stroke"
     d="m 132.97758,235.15555 c -1.82731,-0.44392 -4.4102,-2.70393 -5.3474,-4.67894 -1.83388,-3.86461 -0.40199,-9.10869 3.06419,-11.22213 1.71025,-1.0428 3.31794,-1.06078 91.50355,-1.02388 49.36949,0.0207 91.05848,0.22191 92.64221,0.44722 2.18655,0.31107 3.2916,0.82176 4.592,2.12216 1.52863,1.52863 1.73212,2.10643 1.89515,5.38126 0.22535,4.5268 -0.94086,6.74603 -4.3609,8.29855 -2.23404,1.01413 -4.64983,1.03997 -92.59897,0.9903 -49.66779,-0.0281 -90.79322,-0.1696 -91.38983,-0.31454 z"
     id="path5835"
     inkscape:connector-curvature="0" /><path
     style="opacity:1;fill:#333333;fill-opacity:1;stroke:#ffb7ac;stroke-width:1.08474576;stroke-miterlimit:4;stroke-dasharray:none;stroke-dashoffset:0;stroke-opacity:0;paint-order:fill markers stroke"
     d="m 61.23774,235.03232 c -6.02453,-0.98017 -8.834055,-6.87037 -5.955074,-12.4849 2.264492,-4.41616 1.906473,-4.35844 27.036154,-4.35844 12.623977,0 23.27465,0.23488 24.93581,0.54991 6.68663,1.2681 9.14881,8.29209 4.68772,13.37298 -3.03078,3.45187 -2.93832,3.44027 -26.811755,3.36516 -11.867209,-0.0373 -22.618993,-0.23746 -23.892855,-0.44471 z"
     id="path5837"
     inkscape:connector-curvature="0" /><path
     style="opacity:1;fill:#333333;fill-opacity:1;stroke:#ffb7ac;stroke-width:1.08474576;stroke-miterlimit:4;stroke-dasharray:none;stroke-dashoffset:0;stroke-opacity:0;paint-order:fill markers stroke"
     d="m 61.211398,281.03991 c -3.850984,-0.6406 -4.777916,-1.21072 -6.062554,-3.72881 -1.948193,-3.81878 -1.258277,-7.91091 1.818265,-10.78477 1.083911,-1.0125 2.29009,-1.38515 5.610855,-1.73346 2.326569,-0.24404 60.084766,-0.45687 128.351546,-0.47295 139.55478,-0.0329 126.56347,-0.45248 129.27561,4.17543 2.55734,4.36378 1.53562,9.19363 -2.52351,11.92908 l -1.8136,1.22218 -125.88589,-0.0634 c -70.11686,-0.0353 -127.163909,-0.276 -128.770722,-0.54329 z"
     id="path5839"
     inkscape:connector-curvature="0" /><path
     style="opacity:1;fill:#333333;fill-opacity:1;stroke:#ffb7ac;stroke-width:1.08474576;stroke-miterlimit:4;stroke-dasharray:none;stroke-dashoffset:0;stroke-opacity:0;paint-order:fill markers stroke"
     d="m 60.620893,373.86988 c -2.92683,-0.47346 -5.765748,-3.28589 -6.324774,-6.26575 -0.770609,-4.1077 1.963647,-8.97786 5.636687,-10.03987 1.380063,-0.39903 27.408409,-0.52728 84.544114,-0.41658 l 82.55019,0.15994 2.21141,2.15945 c 3.91642,3.82436 4.13689,8.01587 0.64168,12.19973 -1.50068,1.79635 -1.78723,1.90227 -6.11987,2.26196 -5.98847,0.49715 -160.045877,0.44155 -163.139437,-0.0589 z"
     id="path5841"
     inkscape:connector-curvature="0" /><path
     style="opacity:1;fill:#333333;fill-opacity:1;stroke:#ffb7ac;stroke-width:1.08474576;stroke-miterlimit:4;stroke-dasharray:none;stroke-dashoffset:0;stroke-opacity:0;paint-order:fill markers stroke"
     d="m 250.40131,374.0107 c -0.44746,-0.16282 -1.50653,-0.93677 -2.35351,-1.71989 -4.46774,-4.13095 -4.07534,-10.16006 0.90132,-13.84857 1.50764,-1.11741 2.02178,-1.13684 33.8983,-1.28127 30.75368,-0.13935 32.46123,-0.0961 34.2483,0.86858 3.60149,1.94399 5.22051,5.73353 4.26754,9.98875 -0.63021,2.81404 -2.72288,5.11507 -5.304,5.83211 -2.00939,0.5582 -64.14749,0.70991 -65.65795,0.16029 z"
     id="path5843"
     inkscape:connector-curvature="0" /><path
     style="opacity:1;fill:#c87137;fill-opacity:1;stroke:#ffb7ac;stroke-width:1.08474576;stroke-miterlimit:4;stroke-dasharray:none;stroke-dashoffset:0;stroke-opacity:0;paint-order:fill markers stroke"
     d="m 59.161212,420.00298 c -4.517105,-2.05142 -6.343161,-7.41823 -4.052077,-11.90913 0.641541,-1.25752 1.949814,-2.76405 2.907273,-3.34785 1.715078,-1.04573 3.59049,-1.06112 126.757782,-1.03965 68.75932,0.012 126.81797,0.23034 129.0192,0.48523 3.42789,0.39693 4.24256,0.70375 5.67675,2.13794 1.48584,1.48583 1.69508,2.08785 1.85714,5.34325 0.22535,4.5268 -0.94086,6.74603 -4.3609,8.29855 -2.241,1.01729 -5.21331,1.04129 -128.93795,1.04129 -122.345684,0 -126.719524,-0.0343 -128.867218,-1.00963 z"
     id="path5845"
     inkscape:connector-curvature="0" /><path
     style="opacity:1;fill:#c87137;fill-opacity:1;stroke:#ffb7ac;stroke-width:2.16949153;stroke-miterlimit:4;stroke-dasharray:none;stroke-dashoffset:0;stroke-opacity:0;paint-order:fill markers stroke"
     d="m 56.557786,371.55489 c -3.58232,-3.58232 -3.404683,-7.60966 0.508237,-11.52258 l 3.170796,-3.17079 h 83.115801 83.1158 l 2.66255,2.66256 c 3.84276,3.84274 3.91838,8.25593 0.21,12.25269 l -2.26459,2.44068 H 143.14836 59.220344 Z"
     id="path5847"
     inkscape:connector-curvature="0" /><path
     style="opacity:1;fill:#c87137;fill-opacity:1;stroke:#ffb7ac;stroke-width:2.16949153;stroke-miterlimit:4;stroke-dasharray:none;stroke-dashoffset:0;stroke-opacity:0;paint-order:fill markers stroke"
     d="m 247.47304,371.55489 c -3.58232,-3.58232 -3.40468,-7.60966 0.50824,-11.52258 l 3.17079,-3.17079 h 31.99473 c 17.59709,0 32.7849,0.30322 33.75068,0.67382 2.13452,0.8191 4.92995,5.97018 4.92995,9.08433 0,1.24997 -1.19815,3.47082 -2.66256,4.93522 l -2.66255,2.66256 H 283.31896 250.1356 Z"
     id="path5849"
     inkscape:connector-curvature="0" /><path
     style="opacity:1;fill:#c87137;fill-opacity:1;stroke:#ffb7ac;stroke-width:2.16949153;stroke-miterlimit:4;stroke-dasharray:none;stroke-dashoffset:0;stroke-opacity:0;paint-order:fill markers stroke"
     d="m 62.030821,420.07897 c -4.810829,-0.71507 -7.050847,-3.2522 -7.050847,-7.98606 0,-7.30679 -0.830845,-7.13939 39.803219,-8.01971 51.939817,-1.12526 221.407937,0.36599 223.977817,1.97091 1.46478,0.91477 1.98168,2.57427 1.98168,6.36221 0,4.1782 -0.45076,5.3821 -2.44068,6.51873 -1.94597,1.11152 -27.83566,1.41878 -127.72882,1.51586 -68.90847,0.067 -126.752538,-0.0959 -128.542369,-0.36194 z"
     id="path5851"
     inkscape:connector-curvature="0" /><path
     style="opacity:1;fill:#784421;fill-opacity:1;stroke:#ffb7ac;stroke-width:2.16949153;stroke-miterlimit:4;stroke-dasharray:none;stroke-dashoffset:0;stroke-opacity:0;paint-order:fill markers stroke"
     d="m 56.335906,371.00282 c -3.099448,-3.92987 -3.062574,-5.12926 0.310293,-10.09288 l 2.75097,-4.04842 h 83.824691 83.8247 l 2.37348,3.21031 c 2.97528,4.02428 3.01511,7.61363 0.12527,11.28747 l -2.24822,2.85815 -84.26025,-0.06 -84.260256,-0.06 z"
     id="path5853"
     inkscape:connector-curvature="0" /><path
     style="opacity:1;fill:#784421;fill-opacity:1;stroke:#ffb7ac;stroke-width:2.16949153;stroke-miterlimit:4;stroke-dasharray:none;stroke-dashoffset:0;stroke-opacity:0;paint-order:fill markers stroke"
     d="m 60.946075,420.09655 c -4.1199,-1.03259 -5.966101,-3.6893 -5.966101,-8.58533 0,-3.71199 0.502787,-4.96225 2.440678,-6.06916 3.483272,-1.98962 257.218458,-1.92432 260.881358,0.0671 2.01236,1.09409 2.44068,2.24875 2.44068,6.5797 0,3.56218 -0.57722,5.73188 -1.79347,6.74149 -1.49514,1.24111 -22.9226,1.51547 -128.81356,1.64933 -69.86105,0.0883 -127.996364,-0.0841 -129.189585,-0.38317 z"
     id="path5855"
     inkscape:connector-curvature="0" /><path
     style="opacity:1;fill:#784421;fill-opacity:1;stroke:#ffb7ac;stroke-width:2.16949153;stroke-miterlimit:4;stroke-dasharray:none;stroke-dashoffset:0;stroke-opacity:0;paint-order:fill markers stroke"
     d="m 247.25116,370.61749 c -3.05798,-4.49189 -3.04752,-4.76608 0.37363,-9.80076 l 2.8143,-4.14162 33.47885,0.36439 c 31.99627,0.34826 33.55006,0.46047 35.08675,2.53388 2.96257,3.9973 3.08456,7.07541 0.43468,10.96733 l -2.49329,3.66192 h -33.62712 -33.62712 z"
     id="path5857"
     inkscape:connector-curvature="0" /><path
     style="opacity:1;fill:#784421;fill-opacity:1;stroke:#ffb7ac;stroke-width:2.16949153;stroke-miterlimit:4;stroke-dasharray:none;stroke-dashoffset:0;stroke-opacity:0;paint-order:fill markers stroke"
     d="m 63.65794,281.16801 c -5.757513,-0.64474 -7.263924,-1.36501 -8.491998,-4.06034 -1.921885,-4.21808 -1.545706,-6.84943 1.400368,-9.79551 l 2.671081,-2.67108 129.060399,0.0258 129.0604,0.0258 2.23462,2.84085 c 3.66442,4.65856 2.23084,10.97322 -3.03754,13.37975 -2.19692,1.00353 -31.64777,1.22075 -126.52445,0.93318 -68.01356,-0.20615 -124.881355,-0.51147 -126.37288,-0.67849 z"
     id="path5859"
     inkscape:connector-curvature="0" /><path
     style="opacity:1;fill:#784421;fill-opacity:1;stroke:#ffb7ac;stroke-width:2.16949153;stroke-miterlimit:4;stroke-dasharray:none;stroke-dashoffset:0;stroke-opacity:0;paint-order:fill markers stroke"
     d="m 130.78324,234.27797 c -0.96583,-0.56433 -2.36742,-2.50203 -3.11465,-4.306 -1.59047,-3.83974 0.0246,-9.15042 3.31903,-10.91354 1.213,-0.64918 36.73156,-0.94035 94.18555,-0.7721 102.41227,0.2999 94.99984,-0.28427 96.27727,7.58757 0.52615,3.2423 0.15652,4.39145 -2.15656,6.70454 l -2.79156,2.79155 -91.98151,-0.033 c -55.78828,-0.02 -92.67249,-0.43672 -93.73757,-1.05904 z"
     id="path5861"
     inkscape:connector-curvature="0" /><path
     style="opacity:1;fill:#784421;fill-opacity:1;stroke:#ffb7ac;stroke-width:2.16949153;stroke-miterlimit:4;stroke-dasharray:none;stroke-dashoffset:0;stroke-opacity:0;paint-order:fill markers stroke"
     d="m 57.476721,233.74153 c -5.022693,-3.51803 -3.505096,-13.8038 2.249767,-15.24818 1.395659,-0.35029 13.089449,-0.47939 25.986201,-0.2869 22.457891,0.3352 23.549121,0.45056 25.826891,2.7304 3.16444,3.16732 3.09442,8.26474 -0.16112,11.73011 l -2.53937,2.70303 H 84.320385 c -20.047797,0 -24.942652,-0.29694 -26.843664,-1.62846 z"
     id="path5863"
     inkscape:connector-curvature="0" /><path
     style="opacity:1;fill:#784421;fill-opacity:1;stroke:#ffb7ac;stroke-width:2.16949153;stroke-miterlimit:4;stroke-dasharray:none;stroke-dashoffset:0;stroke-opacity:0;paint-order:fill markers stroke"
     d="m 57.272905,186.82762 c -1.257518,-1.04407 -2.58904,-3.46519 -2.958938,-5.38027 -0.561073,-2.90485 -0.135558,-4.01895 2.567319,-6.72182 l 3.23986,-3.23986 93.859894,-0.0856 c 67.91072,-0.0619 94.60749,0.25507 96.56403,1.14653 5.12496,2.33509 6.49499,8.70592 2.86465,13.32114 l -2.24822,2.85816 h -95.8011 c -89.64497,0 -95.948021,-0.12199 -98.087495,-1.89831 z"
     id="path5865"
     inkscape:connector-curvature="0" /><path
     style="opacity:1;fill:#784421;fill-opacity:1;stroke:#ffb7ac;stroke-width:2.16949153;stroke-miterlimit:4;stroke-dasharray:none;stroke-dashoffset:0;stroke-opacity:0;paint-order:fill markers stroke"
     d="m 272.4715,187.42971 c -1.19322,-0.67663 -2.52812,-1.76009 -2.96644,-2.40769 -1.50616,-2.22527 -0.82776,-7.99094 1.2412,-10.5488 2.01522,-2.49143 2.59601,-2.57041 21.42373,-2.91344 21.5513,-0.39266 26.42924,0.42038 28.39403,4.73262 1.91327,4.19919 1.53568,6.83614 -1.39915,9.77097 -2.64549,2.64549 -2.7967,2.66234 -23.59322,2.62957 -13.54628,-0.0213 -21.69606,-0.46702 -23.10015,-1.26323 z"
     id="path5867"
     inkscape:connector-curvature="0" /><path
     style="opacity:1;fill:#784421;fill-opacity:1;stroke:#ffb7ac;stroke-width:2.16949153;stroke-miterlimit:4;stroke-dasharray:none;stroke-dashoffset:0;stroke-opacity:0;paint-order:fill markers stroke"
     d="M 87.39341,95.43051 C 84.552672,93.770681 82.919141,88.680761 84.170707,85.388892 86.727436,78.664187 80.917414,78.997917 188.95333,79.37013 l 98.35104,0.338846 2.61746,3.043541 c 3.21032,3.732902 3.32605,7.152895 0.36924,10.911867 l -2.24822,2.858152 -99.44669,-0.03299 C 128.11568,96.46949 88.46139,96.054525 87.39341,95.43051 Z"
     id="path5869"
     inkscape:connector-curvature="0" /><path
     style="opacity:1;fill:#333330;fill-opacity:0;stroke:#ffb7ac;stroke-width:2.16949153;stroke-miterlimit:4;stroke-dasharray:none;stroke-dashoffset:0;stroke-opacity:0;paint-order:fill markers stroke"
     d="M 3.2867067,501.0776 0.62414888,498.41505 V 295.70737 92.999695 L 3.13474,90.641117 c 2.8840399,-2.709415 8.009564,-3.087501 11.11259,-0.819724 2.041119,1.491706 2.126482,4.025872 2.78616,82.711867 0.37429,44.64515 0.740392,133.52555 0.813559,197.51199 l 0.133032,116.33898 H 188.28517 358.59025 V 255.87576 25.367285 H 188.40994 18.229642 L 17.808207,47.720401 17.386773,70.073517 14.3687,72.669554 c -3.862264,3.32218 -7.7164267,3.299045 -11.0819933,-0.06652 L 0.62414888,69.940475 V 41.807951 c 0,-26.082878 0.15107959,-28.3191 2.07365092,-30.693375 L 4.7714506,8.5537258 H 187.61682 370.46219 l 2.47081,2.4707952 2.47081,2.470794 V 255.99979 498.50425 l -3.04354,2.61796 -3.04354,2.61796 H 187.633 5.9492644 Z"
     id="path5871"
     inkscape:connector-curvature="0" /><path
     style="opacity:1;fill:#333330;fill-opacity:0;stroke:#ffb7ac;stroke-width:1.53406215;stroke-miterlimit:4;stroke-dasharray:none;stroke-dashoffset:0;stroke-opacity:0;paint-order:fill markers stroke"
     d="M 4.4778519,502.38925 C 3.1786317,501.597 1.7078175,499.95875 1.2093759,498.74873 0.51849762,497.07153 0.35073366,448.54564 0.50347018,294.5648 L 0.70382177,92.580929 3.2087739,90.342771 c 1.7661771,-1.57806 3.3043779,-2.238151 5.2155502,-2.238151 3.2114709,0 6.8075639,1.697179 7.6597659,3.615025 0.814981,1.834094 1.709815,141.394445 1.802649,281.145265 l 0.07528,113.32884 H 188.24418 358.52635 L 358.33332,255.89267 358.14031,25.591586 188.05116,25.398128 17.962021,25.20467 17.936921,43.039843 C 17.904901,65.797375 17.29355,70.988755 14.37009,73.328273 11.137912,75.914844 6.428584,75.703613 3.2087699,72.827646 L 0.70382177,70.5902 0.49947755,42.721676 C 0.30300147,15.926205 0.35469928,14.75643 1.8421346,12.341181 2.6929853,10.959598 4.2743572,9.4926511 5.3562944,9.0812994 6.6140824,8.6030893 72.748212,8.333387 188.75307,8.333387 H 370.1827 l 2.6079,2.607906 2.60791,2.607905 V 255.83705 c 0,218.31397 -0.11846,242.45698 -1.19711,243.99698 -2.99545,4.2766 9.82665,4.00168 -186.49566,3.99857 C 12.109481,503.82953 6.7712486,503.7878 4.4778519,502.38925 Z"
     id="path5873"
     inkscape:connector-curvature="0" /><path
     style="opacity:1;fill:#333330;fill-opacity:0;stroke:#ffb7ac;stroke-width:1.53406215;stroke-miterlimit:4;stroke-dasharray:none;stroke-dashoffset:0;stroke-opacity:0;paint-order:fill markers stroke"
     d="m 153.65241,188.58569 c -103.197169,-0.41747 -96.151606,-0.0814 -98.539957,-4.69999 -1.818391,-3.51638 -1.35742,-5.82185 1.852011,-9.26253 l 2.951981,-3.16468 93.502175,0.059 c 51.4262,0.0324 94.70537,0.36129 96.17593,0.73076 3.76166,0.94508 6.41191,4.96896 5.89111,8.94447 -0.40218,3.07013 -3.44519,7.03665 -5.76561,7.51544 -0.69585,0.14357 -43.92629,0.0885 -96.06764,-0.12247 z"
     id="path5875"
     inkscape:connector-curvature="0" /><path
     style="opacity:1;fill:#333333;fill-opacity:0;stroke:#ffb7ac;stroke-width:1.53406215;stroke-miterlimit:4;stroke-dasharray:none;stroke-dashoffset:0;stroke-opacity:0;paint-order:fill markers stroke"
     d="m 153.65241,188.58569 c -103.197169,-0.41747 -96.151606,-0.0814 -98.539957,-4.69999 -1.818391,-3.51638 -1.35742,-5.82185 1.852011,-9.26253 l 2.951981,-3.16468 93.502175,0.059 c 51.4262,0.0324 94.70537,0.36129 96.17593,0.73076 3.76166,0.94508 6.41191,4.96896 5.89111,8.94447 -0.40218,3.07013 -3.44519,7.03665 -5.76561,7.51544 -0.69585,0.14357 -43.92629,0.0885 -96.06764,-0.12247 z"
     id="path5877"
     inkscape:connector-curvature="0" /><path
     style="opacity:1;fill:#333333;fill-opacity:1;stroke:#ffb7ac;stroke-width:1.53406215;stroke-miterlimit:4;stroke-dasharray:none;stroke-dashoffset:0;stroke-opacity:0;paint-order:fill markers stroke"
     d="m 280.43768,188.62031 c -6.69639,-0.51754 -8.18932,-0.87994 -9.77965,-2.37398 -3.95062,-3.71141 -1.62584,-13.01311 3.50904,-14.04008 4.03887,-0.80778 38.46597,-0.5568 41.56171,0.30299 3.55619,0.98767 5.97755,4.2388 5.97755,8.02598 0,2.20102 -0.58295,3.41761 -2.6079,5.44257 -2.49184,2.49183 -2.85882,2.60806 -8.24559,2.61139 -3.10072,0.002 -9.43448,0.14713 -14.07502,0.32269 -4.64054,0.17557 -11.9936,0.0444 -16.34014,-0.29156 z"
     id="path5879"
     inkscape:connector-curvature="0" /><path
     style="opacity:1;fill:#333333;fill-opacity:1;stroke:#ffb7ac;stroke-width:1.53406215;stroke-miterlimit:4;stroke-dasharray:none;stroke-dashoffset:0;stroke-opacity:0;paint-order:fill markers stroke"
     d="m 153.65241,188.58569 c -103.197169,-0.41747 -96.151606,-0.0814 -98.539957,-4.69999 -1.818391,-3.51638 -1.35742,-5.82185 1.852011,-9.26253 l 2.951981,-3.16468 93.502175,0.059 c 51.4262,0.0324 94.70537,0.36129 96.17593,0.73076 3.76166,0.94508 6.41191,4.96896 5.89111,8.94447 -0.40218,3.07013 -3.44519,7.03665 -5.76561,7.51544 -0.69585,0.14357 -43.92629,0.0885 -96.06764,-0.12247 z"
     id="path5889"
     inkscape:connector-curvature="0" /><path
     style="opacity:1;fill:#333333;fill-opacity:1;stroke:#ffb7ac;stroke-width:1.53406215;stroke-miterlimit:4;stroke-dasharray:none;stroke-dashoffset:0;stroke-opacity:0;paint-order:fill markers stroke"
     d="M 4.4778519,502.38925 C 3.1786317,501.597 1.7078175,499.95875 1.2093759,498.74873 0.51849762,497.07153 0.35073366,448.54564 0.50347018,294.5648 L 0.70382177,92.580929 3.2087739,90.342771 c 1.7661771,-1.57806 3.3043779,-2.238151 5.2155502,-2.238151 3.2114709,0 6.8075639,1.697179 7.6597659,3.615025 0.814981,1.834094 1.709815,141.394445 1.802649,281.145265 l 0.07528,113.32884 H 188.24418 358.52635 L 358.33332,255.89267 358.14031,25.591586 188.05116,25.398128 17.962021,25.20467 17.936921,43.039843 C 17.904901,65.797375 17.29355,70.988755 14.37009,73.328273 11.137912,75.914844 6.428584,75.703613 3.2087699,72.827646 L 0.70382177,70.5902 0.49947755,42.721676 C 0.30300147,15.926205 0.35469928,14.75643 1.8421346,12.341181 2.6929853,10.959598 4.2743572,9.4926511 5.3562944,9.0812994 6.6140824,8.6030893 72.748212,8.333387 188.75307,8.333387 H 370.1827 l 2.6079,2.607906 2.60791,2.607905 V 255.83705 c 0,218.31397 -0.11846,242.45698 -1.19711,243.99698 -2.99545,4.2766 9.82665,4.00168 -186.49566,3.99857 C 12.109481,503.82953 6.7712486,503.7878 4.4778519,502.38925 Z"
     id="path5891"
     inkscape:connector-curvature="0" /><path
     style="opacity:1;fill:#333333;fill-opacity:1;stroke:#ffb7ac;stroke-width:1.53406215;stroke-miterlimit:4;stroke-dasharray:none;stroke-dashoffset:0;stroke-opacity:0;paint-order:fill markers stroke"
     d="m 94.360636,95.818141 c -7.10194,-0.399219 -7.689653,-0.558798 -9.117211,-2.475563 -1.877098,-2.52036 -2.011124,-7.515573 -0.27283,-10.168546 2.609638,-3.982812 0.413864,-3.905513 104.802715,-3.689403 l 97.02576,0.200866 2.68828,2.688284 c 2.26165,2.261652 2.68828,3.22604 2.68828,6.076775 0,2.703768 -0.45524,3.863657 -2.25284,5.739949 l -2.25283,2.351459 -92.85902,-0.148548 C 143.73848,96.311712 98.535845,96.052839 94.360636,95.818141 Z"
     id="path5893"
     inkscape:connector-curvature="0" /><path
     style="opacity:1;fill:#333333;fill-opacity:1;stroke:#ffb7ac;stroke-width:1.53406215;stroke-miterlimit:4;stroke-dasharray:none;stroke-dashoffset:0;stroke-opacity:0;paint-order:fill markers stroke"
     d="m 137.14977,234.80564 c -5.49672,-0.22678 -6.43534,-0.48396 -8.05383,-2.20676 -1.47337,-1.56833 -1.83199,-2.77679 -1.83199,-6.17336 0,-3.62006 0.29106,-4.47364 2.03776,-5.97609 l 2.03777,-1.75281 58.55769,-0.50147 c 64.77482,-0.5547 123.6778,0.29539 127.83702,1.84496 4.64357,1.73002 5.46132,8.21579 1.59159,12.62318 l -2.38055,2.7113 -86.78681,-0.15613 c -47.73275,-0.0859 -89.58664,-0.27164 -93.00865,-0.41282 z"
     id="path5895"
     inkscape:connector-curvature="0" /><path
     style="opacity:1;fill:#333333;fill-opacity:1;stroke:#ffb7ac;stroke-width:1.53406215;stroke-miterlimit:4;stroke-dasharray:none;stroke-dashoffset:0;stroke-opacity:0;paint-order:fill markers stroke"
     d="m 60.051372,234.83431 c -3.247777,-0.50037 -5.659617,-3.66378 -5.629363,-7.38359 0.0379,-4.66024 1.772405,-7.65017 4.970013,-8.5673 1.66009,-0.47614 11.643532,-0.62159 26.324859,-0.38352 l 23.650569,0.38352 2.23673,2.50495 c 3.31027,3.70724 2.95132,7.85529 -1.06095,12.2604 -1.56928,1.72292 -1.61129,1.72562 -25.02442,1.61089 -12.898875,-0.0632 -24.359223,-0.25462 -25.467438,-0.42535 z"
     id="path5897"
     inkscape:connector-curvature="0" /><path
     style="opacity:1;fill:#333333;fill-opacity:1;stroke:#ffb7ac;stroke-width:1.53406215;stroke-miterlimit:4;stroke-dasharray:none;stroke-dashoffset:0;stroke-opacity:0;paint-order:fill markers stroke"
     d="m 91.21349,281.41966 c -17.718418,-0.2237 -32.832109,-0.70742 -33.585979,-1.07495 -1.953623,-0.95242 -3.615029,-4.54072 -3.615029,-7.80773 0,-2.16092 0.594801,-3.3942 2.607906,-5.4073 l 2.607906,-2.60791 H 188.06163 316.89495 l 2.00355,2.00354 c 2.20191,2.20192 3.25223,6.09282 2.47771,9.17874 -0.87004,3.46656 -3.78245,5.42269 -8.86442,5.95386 -5.28191,0.55207 -173.00092,0.3715 -221.2983,-0.23825 z"
     id="path5899"
     inkscape:connector-curvature="0" /><path
     style="opacity:1;fill:#333333;fill-opacity:1;stroke:#ffb7ac;stroke-width:1.53406215;stroke-miterlimit:4;stroke-dasharray:none;stroke-dashoffset:0;stroke-opacity:0;paint-order:fill markers stroke"
     d="m 56.393034,371.49592 c -2.986738,-3.40171 -3.129278,-6.70589 -0.447396,-10.37097 1.063236,-1.45303 2.509863,-3.07333 3.214727,-3.60066 1.006732,-0.75317 19.009642,-0.95879 83.947635,-0.95879 h 82.66607 l 2.64308,2.32066 c 4.58513,4.0258 4.92195,8.95016 0.9084,13.28085 l -1.89079,2.0402 H 143.10417 58.773586 Z"
     id="path5901"
     inkscape:connector-curvature="0" /><path
     style="opacity:1;fill:#333333;fill-opacity:1;stroke:#ffb7ac;stroke-width:1.53406215;stroke-miterlimit:4;stroke-dasharray:none;stroke-dashoffset:0;stroke-opacity:0;paint-order:fill markers stroke"
     d="m 247.8206,372.0447 c -1.1395,-1.18938 -1.83688,-2.39746 -1.54973,-2.68461 0.28715,-0.28715 0.1194,-0.52209 -0.37278,-0.52209 -1.92414,0 -0.93026,-5.20355 1.63677,-8.56947 l 2.53164,-3.31951 31.02597,-0.20855 c 18.33974,-0.12328 31.65324,0.0875 32.56003,0.5156 0.84374,0.39828 2.40045,0.90937 3.45937,1.13576 2.54004,0.54304 4.65467,4.23481 4.40739,7.69455 -0.10804,1.5117 -0.51284,2.74923 -0.89956,2.75008 -0.38671,8.4e-4 -0.46817,0.23648 -0.18102,0.52363 0.28716,0.28715 -0.41022,1.49523 -1.54972,2.68461 l -2.07182,2.16251 h -33.46236 -33.46236 z"
     id="path5903"
     inkscape:connector-curvature="0" /><path
     style="opacity:1;fill:#333333;fill-opacity:1;stroke:#ffb7ac;stroke-width:1.53406215;stroke-miterlimit:4;stroke-dasharray:none;stroke-dashoffset:0;stroke-opacity:0;paint-order:fill markers stroke"
     d="m 57.697099,419.25848 c -1.224568,-0.74477 -2.01645,-1.69397 -1.759737,-2.10934 0.256712,-0.41537 0.112048,-0.75522 -0.321477,-0.75522 -0.433524,0 -0.56782,-0.57436 -0.298435,-1.27637 0.32933,-0.85822 0.1958,-1.09468 -0.407588,-0.72176 -1.631744,1.00847 -0.996782,-4.53143 0.82844,-7.22796 l 1.72582,-2.54967 13.80656,0.0296 c 9.53037,0.0205 12.143597,-0.13329 8.437342,-0.49643 -2.95307,-0.28934 43.816646,-0.54158 103.932716,-0.56054 60.11606,-0.019 108.09385,0.23373 106.61732,0.56154 -1.56084,0.34653 3.66845,0.56574 12.49232,0.52368 14.19554,-0.0677 15.27591,0.0266 16.70748,1.4582 1.72752,1.72752 2.74336,6.42531 1.8381,8.50036 -0.33011,0.75669 -0.55911,1.59358 -0.50888,1.85975 0.0502,0.26617 -0.61383,1.12211 -1.4757,1.90209 -1.24331,1.12518 -2.70271,1.39861 -7.06459,1.32359 -4.86489,-0.0837 -5.05621,-0.0378 -1.66241,0.39901 2.10934,0.27145 -53.42643,0.49356 -123.41282,0.49356 -120.259346,0 -127.370256,-0.0744 -129.474461,-1.35412 z"
     id="path5905"
     inkscape:connector-curvature="0" /><path
     style="opacity:1;fill:#333333;fill-opacity:1;stroke:#ffb7ac;stroke-width:1.53406215;stroke-miterlimit:4;stroke-dasharray:none;stroke-dashoffset:0;stroke-opacity:0;paint-order:fill markers stroke"
     d="m 440.10652,502.18056 c -5.60239,-1.82981 -9.57443,-4.44253 -14.05197,-9.24304 -4.54417,-4.87193 -7.10077,-10.29394 -8.17519,-17.33777 -0.56811,-3.72446 -0.75485,-62.583 -0.60962,-192.14128 l 0.20936,-186.772072 19.78001,-42.18671 c 12.30779,-26.249983 20.50722,-42.836598 21.70504,-43.907054 3.7487,-3.3501286 8.41253,-3.1792567 11.62219,0.425811 1.0095,1.13386 10.61464,20.955122 21.34476,44.047248 l 19.50931,41.985681 V 219.47546 c 0,122.19556 -0.003,122.42819 -1.57264,124.63264 -2.15423,3.02533 -6.64277,4.21478 -10.23736,2.71287 -5.45042,-2.27734 -5.06469,7.01458 -5.06469,-122.00229 V 108.57538 H 464.65151 434.7373 v 157.24137 157.24137 h 29.91421 29.91421 v -28.84036 -28.84037 l 2.70533,-2.70533 c 2.50823,-2.50823 2.96744,-2.67578 6.30312,-2.2998 2.77576,0.31287 4.08977,0.95613 5.75096,2.81533 l 2.15316,2.4098 -0.2107,56.91876 -0.2107,56.91876 -2.44298,5.157 c -3.39378,7.1641 -8.4036,12.26889 -15.46986,15.76315 l -5.77922,2.85781 -21.51982,0.17278 c -18.93376,0.15202 -22.02679,0.007 -25.73849,-1.20509 z m 42.76276,-16.35438 c 4.81452,-1.21232 9.5886,-5.98639 10.80092,-10.80092 0.5347,-2.12351 0.89552,-9.7551 0.89552,-18.94094 V 440.69984 H 464.65151 434.7373 l 0.0168,16.68293 c 0.0147,14.59976 0.19422,17.06603 1.43734,19.75105 1.90095,4.10585 5.30446,7.16743 9.38159,8.43907 4.34608,1.35552 32.16845,1.54447 37.29621,0.25329 z M 488.96616,89.974876 C 487.40401,86.178049 465.22335,39.045701 464.79697,38.617054 464.38053,38.19841 442.83303,83.31465 440.45166,89.59136 c -0.47848,1.261145 0.9847,1.342304 24.19985,1.342304 19.46633,0 24.62542,-0.203439 24.31465,-0.958788 z"
     id="path5945"
     inkscape:connector-curvature="0" /></svg>